<svg width="70" height="70" viewBox="0 0 70 70" fill="none" xmlns="http://www.w3.org/2000/svg">
<path d="M51.7463 13.2956C51.7459 13.2841 51.7453 13.2727 51.7445 13.261C51.7415 13.2174 51.7368 13.1741 51.7284 13.1317C51.7282 13.1312 51.7282 13.1305 51.7281 13.1299C51.7195 13.0866 51.707 13.0442 51.6929 13.0024C51.6894 12.9917 51.6856 12.9813 51.6816 12.9708C51.6668 12.9313 51.6503 12.8926 51.6307 12.8551C51.6296 12.8529 51.6288 12.8506 51.6276 12.8486C51.6068 12.8095 51.5826 12.7723 51.5568 12.736C51.5502 12.7267 51.5434 12.7177 51.5364 12.7086C51.5089 12.6726 51.4798 12.6376 51.4475 12.6052L39.1429 0.300508C39.1404 0.298047 39.1377 0.295996 39.1351 0.293535C39.1137 0.272617 39.0917 0.252383 39.0686 0.233379C39.0611 0.227227 39.0532 0.222031 39.0455 0.216152C39.0435 0.214512 39.0413 0.213008 39.0392 0.211367C39.0309 0.205078 39.0227 0.198652 39.0141 0.192637C39.0053 0.186348 38.997 0.179648 38.988 0.173633C38.981 0.168984 38.9736 0.16502 38.9666 0.160645C38.9453 0.147109 38.924 0.133711 38.9017 0.121816C38.901 0.121406 38.9003 0.121133 38.8995 0.120723C38.8972 0.119492 38.8948 0.118672 38.8925 0.117441C38.8905 0.116348 38.8884 0.115527 38.8864 0.11457C38.8616 0.101719 38.8365 0.0895508 38.8106 0.07875C38.8073 0.0773828 38.8039 0.0764258 38.8005 0.0750586C38.792 0.0716406 38.7833 0.0687695 38.7748 0.065625C38.7666 0.0626172 38.7584 0.0594727 38.7501 0.0566016C38.7388 0.0527734 38.7278 0.0483984 38.7164 0.0449805C38.7127 0.0438867 38.709 0.0432031 38.7054 0.0421094C38.6772 0.0339062 38.6486 0.0263867 38.6195 0.0205078C38.6189 0.0205078 38.6184 0.0203711 38.6179 0.0202344C38.6173 0.0202344 38.6169 0.0200977 38.6163 0.0200977C38.6087 0.0185937 38.6008 0.0179102 38.5931 0.0166797C38.5689 0.0124414 38.5447 0.00820312 38.5198 0.00574219C38.5087 0.00464844 38.4975 0.00478516 38.4865 0.00396484C38.475 0.00328125 38.4635 0.00273438 38.452 0.00232422C38.4411 0.00136719 38.4296 0 38.418 0H6.97266C6.40637 0 5.94727 0.458965 5.94727 1.02539V61.1816C5.94727 61.7481 6.40637 62.207 6.97266 62.207C7.53895 62.207 7.99805 61.7481 7.99805 61.1816V8.88672H24.4727C25.0389 8.88672 25.498 8.42775 25.498 7.86133C25.498 7.2949 25.0389 6.83594 24.4727 6.83594H23.3105V2.05078H37.3926V6.83594H28.8477C28.2814 6.83594 27.8223 7.2949 27.8223 7.86133C27.8223 8.42775 28.2814 8.88672 28.8477 8.88672H37.3926V13.3301C37.3926 13.8965 37.8517 14.3555 38.418 14.3555H49.6973V17.4545C49.6973 18.0209 50.1564 18.4799 50.7227 18.4799C51.2889 18.4799 51.748 18.0209 51.748 17.4545V13.3301C51.748 13.3186 51.7467 13.3071 51.7463 13.2956ZM21.2598 6.83594H7.99805V2.05078H21.2598V6.83594ZM39.4434 12.3047V3.50082L48.2472 12.3047H39.4434Z" fill="black"/>
<path d="M10.9375 5.46875C11.5038 5.46875 11.9629 5.00967 11.9629 4.44336C11.9629 3.87705 11.5038 3.41797 10.9375 3.41797C10.3712 3.41797 9.91211 3.87705 9.91211 4.44336C9.91211 5.00967 10.3712 5.46875 10.9375 5.46875Z" fill="black"/>
<path d="M18.5938 5.46875C19.1601 5.46875 19.6191 5.00967 19.6191 4.44336C19.6191 3.87705 19.1601 3.41797 18.5938 3.41797C18.0274 3.41797 17.5684 3.87705 17.5684 4.44336C17.5684 5.00967 18.0274 5.46875 18.5938 5.46875Z" fill="black"/>
<path d="M14.7656 5.46875C15.3319 5.46875 15.791 5.00967 15.791 4.44336C15.791 3.87705 15.3319 3.41797 14.7656 3.41797C14.1993 3.41797 13.7402 3.87705 13.7402 4.44336C13.7402 5.00967 14.1993 5.46875 14.7656 5.46875Z" fill="black"/>
<path d="M42.5933 39.379C42.3764 39.2142 37.1873 35.3418 28.8362 35.3418C20.4839 35.3418 15.3161 39.2156 15.1002 39.3805C14.6509 39.7236 14.5651 40.3653 14.9074 40.8153C15.2495 41.2653 15.8926 41.3528 16.3434 41.0115C16.3912 40.9753 21.2111 37.3926 28.8362 37.3926C36.4628 37.3926 41.3056 40.9767 41.352 41.0117C41.5375 41.1526 41.7556 41.2207 41.9719 41.2207C42.2813 41.2207 42.5871 41.0813 42.7889 40.8159C43.1316 40.3651 43.044 39.7219 42.5933 39.379Z" fill="black"/>
<path d="M22.4585 25.0484L21.0954 23.9258L22.4585 22.8032C22.8956 22.4432 22.9582 21.7971 22.5982 21.3598C22.2381 20.9228 21.592 20.8601 21.1549 21.2203L18.8307 23.1343C18.5941 23.329 18.4572 23.6194 18.4572 23.9258C18.4572 24.2322 18.5941 24.5226 18.8307 24.7172L21.1549 26.6313C21.3457 26.7885 21.5767 26.8652 21.8061 26.8652C22.1019 26.8652 22.3955 26.7378 22.5982 26.4917C22.9582 26.0546 22.8957 25.4084 22.4585 25.0484Z" fill="black"/>
<path d="M38.8646 23.1343L36.5404 21.2203C36.1033 20.8601 35.4571 20.9228 35.0971 21.3598C34.7371 21.7969 34.7996 22.4432 35.2368 22.8032L36.5999 23.9258L35.2368 25.0484C34.7997 25.4084 34.7371 26.0545 35.0971 26.4917C35.2998 26.7379 35.5934 26.8652 35.8892 26.8652C36.1186 26.8652 36.3496 26.7885 36.5404 26.6313L38.8646 24.7172C39.1012 24.5226 39.2381 24.2322 39.2381 23.9258C39.2381 23.6194 39.1012 23.329 38.8646 23.1343Z" fill="black"/>
<path d="M51.748 43.3789V22.0117C51.748 21.4453 51.2889 20.9863 50.7227 20.9863C50.1564 20.9863 49.6973 21.4453 49.6973 22.0117V43.3789C42.8243 43.9042 37.3926 49.6647 37.3926 56.6699C37.3926 61.4138 39.884 65.5862 43.6265 67.9492H7.99805V65.6022C7.99805 65.0357 7.53895 64.5768 6.97266 64.5768C6.40637 64.5768 5.94727 65.0357 5.94727 65.6022V68.9746C5.94727 69.541 6.40637 70 6.97266 70H50.7227C58.0729 70 64.0527 64.0202 64.0527 56.6699C64.0527 49.6647 58.621 43.9042 51.748 43.3789ZM50.7227 67.9492C44.5032 67.9492 39.4434 62.8893 39.4434 56.6699C39.4434 50.4506 44.5032 45.3906 50.7227 45.3906C56.9421 45.3906 62.002 50.4506 62.002 56.6699C62.002 62.8893 56.9421 67.9492 50.7227 67.9492Z" fill="black"/>
<path d="M56.0402 56.6702L58.2153 54.4951C58.6157 54.0947 58.6157 53.4455 58.2153 53.045L54.3475 49.1772C53.947 48.7769 53.2978 48.7769 52.8975 49.1772L50.7223 51.3524L48.5475 49.1776C48.147 48.7773 47.4977 48.7773 47.0974 49.1776L43.2305 53.0445C43.0381 53.2369 42.9301 53.4976 42.9301 53.7697C42.9301 54.0418 43.0381 54.3024 43.2305 54.4949L45.4053 56.6695L43.2302 58.8446C42.8298 59.2452 42.8298 59.8943 43.2302 60.2947L47.098 64.1625C47.2981 64.3627 47.5606 64.4628 47.823 64.4628C48.0854 64.4628 48.3479 64.3627 48.548 64.1625L50.7232 61.9873L52.898 64.1621C53.0982 64.3623 53.3607 64.4623 53.623 64.4623C53.8854 64.4623 54.1479 64.3623 54.348 64.1621L58.215 60.2952C58.4074 60.1028 58.5154 59.8421 58.5154 59.57C58.5154 59.2979 58.4074 59.0373 58.215 58.8448L56.0402 56.6702ZM47.8229 61.9875L45.4051 59.5697L46.8552 58.1197L49.2728 60.5373L47.8229 61.9875ZM53.6229 61.987L45.4055 53.7697L47.8225 51.3528L56.0398 59.5701L53.6229 61.987ZM54.5902 55.2203L52.1724 52.8026L53.6225 51.3525L56.0402 53.7702L54.5902 55.2203Z" fill="black"/>
</svg>
