<svg width="32" height="32" viewBox="0 0 32 32"  xmlns="http://www.w3.org/2000/svg">
<g clip-path="url(#clip0_3_2)">
<path d="M31.6369 14.7758L18.6125 1.66563C18.5958 1.64875 18.5785 1.63238 18.5609 1.6165C17.1387 0.339567 14.9896 0.335005 13.562 1.60594C13.5442 1.62175 13.527 1.63807 13.5102 1.65482L0.367115 14.772C-0.12151 15.2598 -0.122323 16.0512 0.365365 16.5398C0.853115 17.0284 1.64455 17.0292 2.13311 16.5416L3.12511 15.5515V26.3443C3.12511 29.1013 5.36811 31.3443 8.12511 31.3443H12.6251C13.3155 31.3443 13.8751 30.7846 13.8751 30.0943V19.9068H18.2501V30.0943C18.2501 30.7846 18.8097 31.3443 19.5001 31.3443H23.8751C26.6321 31.3443 28.8751 29.1013 28.8751 26.3443C28.8751 25.6539 28.3155 25.0943 27.6251 25.0943C26.9347 25.0943 26.3751 25.6539 26.3751 26.3443C26.3751 27.7228 25.2536 28.8443 23.8751 28.8443H20.7501V18.6568C20.7501 17.9664 20.1905 17.4068 19.5001 17.4068H12.6251C11.9347 17.4068 11.3751 17.9664 11.3751 18.6568V28.8443H8.12511C6.74661 28.8443 5.62511 27.7228 5.62511 26.3443V13.0943C5.62511 13.0818 5.62493 13.0693 5.62455 13.0569L15.2467 3.45375C15.7151 3.05607 16.4019 3.05757 16.8684 3.45719L26.3751 13.0266V20.0943C26.3751 20.7846 26.9347 21.3443 27.6251 21.3443C28.3155 21.3443 28.8751 20.7846 28.8751 20.0943V15.543L29.8634 16.5378C30.1077 16.7838 30.4288 16.9068 30.7501 16.9068C31.0687 16.9068 31.3873 16.7858 31.6311 16.5436C32.1209 16.057 32.1235 15.2656 31.6369 14.7758Z"/>
</g>
<defs>
<clipPath id="clip0_3_2">
<rect width="32" height="32" />
</clipPath>
</defs>
</svg>
