<svg width="40" height="40" viewBox="0 0 40 40" fill="none" xmlns="http://www.w3.org/2000/svg">
<g clip-path="url(#clip0_1_2)">
<path d="M20.0002 0.000335693C8.95441 0.000335693 0 8.95394 0 20.0006C0 31.0455 8.95441 39.9999 20.0002 39.9999C31.0456 39.9999 40 31.0455 40 20.0006C40 8.95386 31.0456 0.000335693 20.0002 0.000335693Z" fill="#334D5C"/>
<path d="M25.9899 6.51251C26.8041 8.34306 27.2573 10.3697 27.2573 12.5024C27.2573 20.6513 20.6513 27.2573 12.5024 27.2573C10.3697 27.2573 8.34314 26.804 6.51251 25.9899C8.80936 31.1538 13.9838 34.7549 20 34.7549C28.1488 34.7549 34.7549 28.1489 34.7549 20C34.7549 13.9838 31.1538 8.80928 25.9899 6.51251Z" fill="#F2C900"/>
<path d="M12.5024 27.2573C10.3697 27.2573 8.34314 26.804 6.51251 25.9899C8.80936 31.1538 13.9838 34.7549 20 34.7549C28.1488 34.7549 34.7549 28.1489 34.7549 20C34.7549 20 20.6512 27.2573 12.5024 27.2573Z" fill="#DBBB00"/>
<path d="M19.0773 15.2106L16.9053 15.134L16.2229 13.1368L15.5406 15.134L13.3686 15.2106L15.1188 16.4319L14.4589 18.5661L16.2229 17.234L17.9869 18.5661L17.3271 16.4319L19.0773 15.2106Z" fill="#DBBB00"/>
<path d="M16.9159 15.7013L17.2901 14.2817L16.1077 15.1517L14.8244 14.3589L15.3354 15.7507L14.1357 16.7277L15.6662 16.6703L16.1758 18.1146L16.6432 16.6398L18.1254 16.6029L16.9159 15.7013Z" fill="#F2C900"/>
<path d="M8.18457 18.5182L6.6216 18.4631L6.13055 17.0258L5.6395 18.4631L4.07645 18.5182L5.33596 19.397L4.86104 20.9329L6.13055 19.9744L7.39998 20.9329L6.92506 19.397L8.18457 18.5182Z" fill="#DBBB00"/>
<path d="M6.62919 18.8713L6.89846 17.8498L6.0476 18.4759L5.12403 17.9053L5.49181 18.9069L4.62854 19.61L5.72996 19.5687L6.0967 20.608L6.43305 19.5467L7.49956 19.5201L6.62919 18.8713Z" fill="#F2C900"/>
<path d="M22.4637 5.53018L20.5876 5.46399L19.9983 3.73889L19.4089 5.46399L17.5328 5.53018L19.0446 6.58516L18.4744 8.42861L19.9983 7.27801L21.522 8.42861L20.952 6.58516L22.4637 5.53018Z" fill="#DBBB00"/>
<path d="M20.5968 5.95399L20.92 4.72784L19.8987 5.47938L18.7902 4.79452L19.2317 5.99663L18.1953 6.84056L19.5174 6.79106L19.9577 8.03856L20.3613 6.7647L21.6415 6.73277L20.5968 5.95399Z" fill="#F2C900"/>
</g>
<defs>
<clipPath id="clip0_1_2">
<rect width="40" height="40" fill="white"/>
</clipPath>
</defs>
</svg>
