<svg width="40" height="40" viewBox="0 0 40 40" fill="none" xmlns="http://www.w3.org/2000/svg">
<g clip-path="url(#clip0_1_13)">
<path d="M40 21.6162V18.3838H33.994C33.687 15.7084 32.628 13.2587 31.0337 11.252L35.285 7.00065L32.9993 4.71507L28.7481 8.9663C26.7413 7.37188 24.2915 6.31297 21.6162 6.00598V0H18.3839V6.00598C18.9144 5.94513 19.4535 5.91273 20.0001 5.91273V34.0873C19.4535 34.0873 18.9144 34.0549 18.3839 33.994V40H21.6162V33.994C24.2915 33.687 26.7413 32.628 28.7481 31.0337L32.9993 35.2849L35.285 32.9994L31.0337 28.748C32.6281 26.7413 33.687 24.2916 33.994 21.6162H40Z" fill="#FFCD00"/>
<path d="M20 5.91273C19.4534 5.91273 18.9143 5.94513 18.3838 6.00598C15.7085 6.31297 13.2587 7.37196 11.252 8.96631L7.00073 4.71507L4.71507 7.00065L8.96638 11.252C7.37196 13.2587 6.31305 15.7084 6.00606 18.3838H0V21.6162H6.00598C6.31297 24.2916 7.37196 26.7413 8.9663 28.748L4.71499 32.9994L7.00065 35.2849L11.2519 31.0337C13.2587 32.6281 15.7084 33.687 18.3838 33.994C18.9143 34.0549 19.4533 34.0873 19.9999 34.0873V5.91273H20Z" fill="#FFDA44"/>
</g>
<defs>
<clipPath id="clip0_1_13">
<rect width="40" height="40" fill="white"/>
</clipPath>
</defs>
</svg>
